<svg id="黑底白字" xmlns="http://www.w3.org/2000/svg" width="1080" height="1080" viewBox="0 0 1080 1080">
  <defs>
    <style>
      .cls-1 {
        fill: #121212;
      }

      .cls-2 {
        fill: #fff;
        fill-rule: evenodd;
      }
    </style>
  </defs>
  <circle id="椭圆_1" data-name="椭圆 1" class="cls-1" cx="540" cy="540" r="540"/>
  <path id="仓_拷贝" data-name="仓 拷贝" class="cls-2" d="M375.562,444.818a1041.733,1041.733,0,0,0,148.93-141.692q64.667,84.107,128.026,141.692H375.562Zm458.545-18.943q-162-78.8-261.932-181.093,24.816-34.842,37.232-53.039L479.421,156.888Q376.863,339.5,210.957,459.214l40.5,66.679a949.307,949.307,0,0,0,85.569-53.04V741.84q0,64.411,22.209,89.41,24.158,27.277,86.222,27.277h320.72L770.747,807H442.189V503.919H580.013V653.946H484.647l4.572,48.493h94.06q50.95,0,73.812-12.123,31.353-16.659,31.353-61.375V485.734a51.551,51.551,0,0,0-1.306-10.608,1057.686,1057.686,0,0,0,88.835,64.4Z"/>
</svg>
