<svg width="150" height="150" xmlns="http://www.w3.org/2000/svg"><g fill="none" fill-rule="evenodd"><path d="M0 0h150v150H0z"/><path d="M130.14 92.56c-1.112-4.537-1.112-16.997 0-37.38C130.14 24.832 105.323 0 74.987 0 44.652 0 19.834 24.831 19.834 55.18c1.112 20.383 1.112 32.843 0 37.38-1.668 6.804-5.859 21.88-11.707 28.589-8.338 8.122-6.801 13.171-5.485 15.805 1.316 2.632 5.703 6.364 15.358 2.193 9.652-4.17 15.258-6.753 26.667 1.693 8.715 5.78 19.14 9.16 30.32 9.16s21.605-3.38 30.32-9.16c11.41-8.446 17.015-5.864 26.667-1.693 9.655 4.171 14.042.439 15.358-2.193 1.316-2.634 2.853-7.683-5.485-15.805-5.848-6.71-10.039-21.785-11.707-28.59Z" fill="#20A0FF"/><path d="M105.498 51.91c0-16.212-13.143-29.355-29.354-29.355-16.212 0-29.355 13.143-29.355 29.355 0 16.211 13.143 29.355 29.355 29.355 16.211 0 29.354-13.144 29.354-29.355" fill="#FFF"/><path d="M102.214 55.622c0 7.555-6.125 13.68-13.68 13.68-7.554 0-13.679-6.125-13.679-13.68s6.125-13.68 13.68-13.68c7.554 0 13.68 6.125 13.68 13.68" fill="#263244"/></g></svg>