<svg xmlns="http://www.w3.org/2000/svg" viewBox="0 0 279.98 279.98"><title>资源 1</title><g id="aebfb20b-2fbf-43e1-9c02-333608d6219b" data-name="图层 2"><g id="bfc9dcae-9b31-412c-bae6-eb3bd86647f6" data-name="图层 1"><circle cx="139.99" cy="139.99" r="139.99" fill="#ec715b"/><path d="M92.44,119.79l26.24,25.79V197s-22.13-.57-24.18-24.3c0,0-22.82-.23-24.42-24.41,0,0-23.27-1.6-24.41-24.19L48.4,112Z" fill="#fff"/><path d="M223.41,103.08,139.9,18.2l15.74,127.66-37.31,116,17.37,18c1.43.05,2.85.08,4.29.08A140,140,0,0,0,278.5,119.68l-19.73-19.4Z" fill="#e7447a"/><rect x="118.33" y="221.58" width="21.72" height="40.31" fill="#36596e"/><rect x="140.06" y="221.58" width="21.72" height="40.31" fill="#03283e"/><rect x="140.06" y="209.35" width="21.72" height="12.24" fill="#c1e0f2"/><rect x="118.33" y="209.35" width="21.72" height="12.24" fill="#fff"/><path d="M148.88,37.71l-8.82-19.63-8.82,19.63Z" fill="#03283e"/><path d="M21.34,100.19H94.68s20.37-1.36,23.76,22.41v25.8S97.39,149.08,94,124H45.78S24.73,124,21.34,100.19Z" fill="#c4e4f7"/><path d="M140.06,71.59H118.33l12.91-33.88,8.87.07Z" fill="#fff"/><path d="M140.06,71.59h21.72l-12.9-33.88-8.82.07Z" fill="#f8eed4"/><path d="M187.75,119.79l-26.24,25.79V197s22.13-.57,24.18-24.3c0,0,22.82-.23,24.42-24.41,0,0,23.27-1.6,24.41-24.19L231.78,112Z" fill="#c4e4f7"/><path d="M258.85,100.19H185.51s-20.37-1.36-23.76,22.41v25.8s21.05.68,24.44-24.44h48.22S255.46,124,258.85,100.19Z" fill="#7dc1eb"/><rect x="140.06" y="71.59" width="21.72" height="137.76" fill="#205779"/><rect x="118.33" y="71.59" width="21.72" height="137.76" fill="#2d6a91"/></g></g></svg>