<?xml version="1.0" standalone="no"?><!DOCTYPE svg PUBLIC "-//W3C//DTD SVG 1.1//EN" "http://www.w3.org/Graphics/SVG/1.1/DTD/svg11.dtd"><svg t="1536050868927" class="icon" style="" viewBox="0 0 1024 1024" version="1.1" xmlns="http://www.w3.org/2000/svg" p-id="64764" xmlns:xlink="http://www.w3.org/1999/xlink" width="32" height="32"><defs><style type="text/css"></style></defs><path d="M512 0C229.003636 0 0 229.003636 0 512s229.003636 512 512 512 512-229.003636 512-512S794.996364 0 512 0z m261.585455 465.454545L637.672727 582.749091l4.654546 18.618182c-95.883636 0.930909-159.185455-8.378182-159.185455-8.378182l158.254546-112.64c-128.465455-26.996364-302.545455 4.654545-288.581819 5.585454C549.236364 492.450909 554.821818 502.690909 554.821818 502.690909L397.498182 615.330909c216.901818 13.963636 277.410909-14.894545 277.410909-14.894545s-14.894545 12.101818-28.858182 18.618181l32.581818 137.774546c0.930909 2.792727-0.930909 6.516364-2.792727 8.378182-1.861818 0.930909-2.792727 1.861818-4.654545 1.861818s-2.792727 0-4.654546-0.930909L512 673.978182l-154.530909 92.16c-2.792727 1.861818-6.516364 1.861818-9.309091 0-2.792727-1.861818-3.723636-5.585455-2.792727-8.378182l40.96-175.010909L249.483636 465.454545c-2.792727-1.861818-3.723636-5.585455-2.792727-8.378181s3.723636-5.585455 7.447273-5.585455l179.665454-14.894545L504.552727 269.963636c0.930909-2.792727 4.654545-4.654545 7.447273-4.654545 3.723636 0 6.516364 1.861818 7.447273 4.654545l69.818182 164.770909 179.665454 14.894546c3.723636 0 6.516364 2.792727 7.447273 5.585454s0 8.378182-2.792727 10.24z" fill="#F5BC32" p-id="64765"></path></svg>